<svg height="512" viewBox="0 0 256 256" width="512" xmlns="http://www.w3.org/2000/svg">
  <path d="m184.996 130.05 12.02 38.09h-39.72l-12.49 37.7-32.27-23.17-32.27 23.17-12.49-37.7h-39.66l11.96-38.09-31.96-23.55 31.96-23.54-12.02-38.09h39.72l12.49-37.7 32.27 23.17 32.27-23.17 12.49 37.7h39.72l-12.02 38.09 31.96 23.54z" fill="transparent"/>
  <path d="m184.996 130.05 12.02 38.09h-20l-12.02-38.09 31.96-23.55-31.96-23.54 12.02-38.09h20l-12.02 38.09 31.96 23.54z" fill="transparent"/>
  <path d="m120.036 51.42a55.594 55.594 0 1 0 48.09 55.08 55.584 55.584 0 0 0 -48.09-55.08z" fill="transparent"/>
  <path d="m168.126 106.5a55.589 55.589 0 0 1 -48.09 55.09 56.313 56.313 0 0 1 -7.5-1.54 55.612 55.612 0 0 0 0-107.09 54.772 54.772 0 0 1 7.5-1.54 55.586 55.586 0 0 1 48.09 55.08z" fill="transparent"/>
  <path d="m71.946 106.5a55.606 55.606 0 0 1 40.59-53.54 54.772 54.772 0 0 1 7.5-1.54 55.593 55.593 0 1 0 0 110.17 56.313 56.313 0 0 1 -7.5-1.54 55.618 55.618 0 0 1 -40.59-53.55z" fill="transparent"/>
  <path d="m28.116 106.5 31.96 23.55-12.02 38.09h-19.94l11.96-38.09-31.96-23.55 31.96-23.54-12.02-38.09h20l12.02 38.09z" fill="transparent"/>
  <g fill="#000">
    <path d="m85.1 76.868a40.53 40.53 0 0 0 -12.967 29.632 4 4 0 0 0 8 0 32.5 32.5 0 0 1 10.4-23.767 4 4 0 1 0 -5.433-5.865z"/>
    <path d="m112.537 66.1h-.005a40.194 40.194 0 0 0 -13.273 2.241 4 4 0 1 0 2.634 7.554 32.217 32.217 0 0 1 10.639-1.8 4 4 0 0 0 0-8z"/>
    <path d="m112.536 205.5a4 4 0 0 0 -4 4v39.333a4 4 0 0 0 8 0v-39.333a4 4 0 0 0 -4-4z"/>
    <path d="m176.31 187.477a4 4 0 1 0 -6.472 4.7l23.12 31.823a4 4 0 1 0 6.472-4.7z"/>
    <path d="m249.134 146.682-37.409-12.155a4 4 0 1 0 -2.472 7.608l37.408 12.155c5.088 1.65 7.452-5.99 2.473-7.608z"/>
    <path d="m189.671 131.574 29.658-21.854a4 4 0 0 0 0-6.441l-29.657-21.843 11.158-35.362a4 4 0 0 0 -3.815-5.2h-36.831l-11.584-34.962a4 4 0 0 0 -6.13-1.991l-29.936 21.5-29.934-21.5a4 4 0 0 0 -6.129 1.991l-11.584 34.958h-36.832a4 4 0 0 0 -3.814 5.2l11.159 35.366-29.657 21.843a4 4 0 0 0 0 6.441l29.657 21.856-11.1 35.366a4 4 0 0 0 3.816 5.2h36.771l11.582 34.958a4 4 0 0 0 6.129 1.991l29.938-21.5 29.936 21.5a4 4 0 0 0 6.13-1.991l11.582-34.958h36.831a4 4 0 0 0 3.815-5.2zm-32.371 32.566a4 4 0 0 0 -3.8 2.742l-10.78 32.536-27.85-20a4 4 0 0 0 -4.666 0l-27.852 20-10.779-32.536a4 4 0 0 0 -3.8-2.742h-34.209l10.328-32.892a4 4 0 0 0 -1.443-4.418l-27.589-20.33 27.588-20.32a4 4 0 0 0 1.442-4.425l-10.378-32.885h34.264a4 4 0 0 0 3.8-2.742l10.776-32.536 27.851 20a4 4 0 0 0 4.666 0l27.85-20 10.781 32.536a4 4 0 0 0 3.8 2.742h34.262l-10.381 32.886a4 4 0 0 0 1.443 4.425l27.588 20.32-27.589 20.329a4 4 0 0 0 -1.442 4.423l10.377 32.887z"/>
    <path d="m73.306 61.642a59.581 59.581 0 0 0 39.3 104.441 59.472 59.472 0 0 0 59.52-59.583c0-50.939-60.335-78.556-98.82-44.858zm46.2 95.983a51.6 51.6 0 0 1 -40.93-89.965c33.1-28.978 85.55-5.535 85.55 38.84a51.711 51.711 0 0 1 -44.618 51.125z"/>
  </g>
</svg>